<svg width="367" height="69" viewBox="0 0 367 69" fill="none" xmlns="http://www.w3.org/2000/svg">
<path d="M16.832 35.2C18.1014 35.2 19.1 35.5033 19.828 36.11C20.556 36.7167 20.92 37.552 20.92 38.616C20.92 39.68 20.556 40.5153 19.828 41.122C19.1 41.7287 18.1014 42.032 16.832 42.032H14.41V45H13.01V35.2H16.832ZM16.79 40.814C17.6767 40.814 18.3534 40.6273 18.82 40.254C19.2867 39.8713 19.52 39.3253 19.52 38.616C19.52 37.9067 19.2867 37.3653 18.82 36.992C18.3534 36.6093 17.6767 36.418 16.79 36.418H14.41V40.814H16.79ZM29.4595 41.332C29.4595 41.4347 29.4502 41.57 29.4315 41.738H23.4115C23.4955 42.3913 23.7802 42.9187 24.2655 43.32C24.7602 43.712 25.3715 43.908 26.0995 43.908C26.9862 43.908 27.7002 43.6093 28.2415 43.012L28.9835 43.88C28.6475 44.272 28.2275 44.5707 27.7235 44.776C27.2288 44.9813 26.6735 45.084 26.0575 45.084C25.2735 45.084 24.5782 44.9253 23.9715 44.608C23.3648 44.2813 22.8935 43.8287 22.5575 43.25C22.2308 42.6713 22.0675 42.018 22.0675 41.29C22.0675 40.5713 22.2262 39.9227 22.5435 39.344C22.8702 38.7653 23.3135 38.3173 23.8735 38C24.4428 37.6733 25.0822 37.51 25.7915 37.51C26.5008 37.51 27.1308 37.6733 27.6815 38C28.2415 38.3173 28.6755 38.7653 28.9835 39.344C29.3008 39.9227 29.4595 40.5853 29.4595 41.332ZM25.7915 38.644C25.1475 38.644 24.6062 38.84 24.1675 39.232C23.7382 39.624 23.4862 40.1373 23.4115 40.772H28.1715C28.0968 40.1467 27.8402 39.638 27.4015 39.246C26.9722 38.8447 26.4355 38.644 25.7915 38.644ZM32.6138 38.826C32.8471 38.3967 33.1924 38.07 33.6498 37.846C34.1071 37.622 34.6624 37.51 35.3158 37.51V38.812C35.2411 38.8027 35.1384 38.798 35.0078 38.798C34.2798 38.798 33.7058 39.0173 33.2858 39.456C32.8751 39.8853 32.6698 40.5013 32.6698 41.304V45H31.3258V37.58H32.6138V38.826ZM39.1549 45.084C38.5483 45.084 37.9649 45.0047 37.4049 44.846C36.8449 44.678 36.4063 44.468 36.0889 44.216L36.6489 43.152C36.9756 43.3853 37.3723 43.572 37.8389 43.712C38.3056 43.852 38.7769 43.922 39.2529 43.922C40.4289 43.922 41.0169 43.586 41.0169 42.914C41.0169 42.69 40.9376 42.5127 40.7789 42.382C40.6203 42.2513 40.4196 42.158 40.1769 42.102C39.9436 42.0367 39.6076 41.9667 39.1689 41.892C38.5716 41.7987 38.0816 41.6913 37.6989 41.57C37.3256 41.4487 37.0036 41.2433 36.7329 40.954C36.4623 40.6647 36.3269 40.2587 36.3269 39.736C36.3269 39.064 36.6069 38.5273 37.1669 38.126C37.7269 37.7153 38.4783 37.51 39.4209 37.51C39.9156 37.51 40.4103 37.5707 40.9049 37.692C41.3996 37.8133 41.8056 37.9767 42.1229 38.182L41.5489 39.246C40.9423 38.854 40.2283 38.658 39.4069 38.658C38.8376 38.658 38.4036 38.7513 38.1049 38.938C37.8063 39.1247 37.6569 39.372 37.6569 39.68C37.6569 39.9227 37.7409 40.114 37.9089 40.254C38.0769 40.394 38.2823 40.4967 38.5249 40.562C38.7769 40.6273 39.1269 40.702 39.5749 40.786C40.1723 40.8887 40.6529 41.0007 41.0169 41.122C41.3903 41.234 41.7076 41.43 41.9689 41.71C42.2303 41.99 42.3609 42.382 42.3609 42.886C42.3609 43.558 42.0716 44.0947 41.4929 44.496C40.9236 44.888 40.1443 45.084 39.1549 45.084ZM47.2186 45.084C46.4813 45.084 45.8186 44.9207 45.2306 44.594C44.6426 44.2673 44.1806 43.8193 43.8446 43.25C43.5179 42.6713 43.3546 42.018 43.3546 41.29C43.3546 40.562 43.5179 39.9133 43.8446 39.344C44.1806 38.7653 44.6426 38.3173 45.2306 38C45.8186 37.6733 46.4813 37.51 47.2186 37.51C47.9559 37.51 48.6139 37.6733 49.1926 38C49.7806 38.3173 50.2379 38.7653 50.5646 39.344C50.9006 39.9133 51.0686 40.562 51.0686 41.29C51.0686 42.018 50.9006 42.6713 50.5646 43.25C50.2379 43.8193 49.7806 44.2673 49.1926 44.594C48.6139 44.9207 47.9559 45.084 47.2186 45.084ZM47.2186 43.908C47.6946 43.908 48.1193 43.8007 48.4926 43.586C48.8753 43.362 49.1739 43.054 49.3886 42.662C49.6033 42.2607 49.7106 41.8033 49.7106 41.29C49.7106 40.7767 49.6033 40.324 49.3886 39.932C49.1739 39.5307 48.8753 39.2227 48.4926 39.008C48.1193 38.7933 47.6946 38.686 47.2186 38.686C46.7426 38.686 46.3133 38.7933 45.9306 39.008C45.5573 39.2227 45.2586 39.5307 45.0346 39.932C44.8199 40.324 44.7126 40.7767 44.7126 41.29C44.7126 41.8033 44.8199 42.2607 45.0346 42.662C45.2586 43.054 45.5573 43.362 45.9306 43.586C46.3133 43.8007 46.7426 43.908 47.2186 43.908ZM56.8893 37.51C57.832 37.51 58.5787 37.7853 59.1293 38.336C59.6893 38.8773 59.9693 39.6753 59.9693 40.73V45H58.6253V40.884C58.6253 40.1653 58.4527 39.624 58.1073 39.26C57.762 38.896 57.2673 38.714 56.6233 38.714C55.8953 38.714 55.3213 38.9287 54.9013 39.358C54.4813 39.778 54.2713 40.3847 54.2713 41.178V45H52.9273V37.58H54.2153V38.7C54.486 38.3173 54.85 38.0233 55.3073 37.818C55.774 37.6127 56.3013 37.51 56.8893 37.51ZM65.1586 37.51C66.1853 37.51 66.9693 37.762 67.5106 38.266C68.0613 38.77 68.3366 39.5213 68.3366 40.52V45H67.0626V44.02C66.8386 44.3653 66.5166 44.6313 66.0966 44.818C65.686 44.9953 65.196 45.084 64.6266 45.084C63.796 45.084 63.1286 44.8833 62.6246 44.482C62.13 44.0807 61.8826 43.5533 61.8826 42.9C61.8826 42.2467 62.1206 41.724 62.5966 41.332C63.0726 40.9307 63.8286 40.73 64.8646 40.73H66.9926V40.464C66.9926 39.8853 66.8246 39.442 66.4886 39.134C66.1526 38.826 65.658 38.672 65.0046 38.672C64.566 38.672 64.1366 38.7467 63.7166 38.896C63.2966 39.036 62.942 39.2273 62.6526 39.47L62.0926 38.462C62.4753 38.154 62.9326 37.9207 63.4646 37.762C63.9966 37.594 64.5613 37.51 65.1586 37.51ZM64.8506 44.048C65.364 44.048 65.8073 43.936 66.1806 43.712C66.554 43.4787 66.8246 43.152 66.9926 42.732V41.696H64.9206C63.782 41.696 63.2126 42.0787 63.2126 42.844C63.2126 43.2173 63.3573 43.5113 63.6466 43.726C63.936 43.9407 64.3373 44.048 64.8506 44.048ZM70.8238 34.612H72.1678V45H70.8238V34.612ZM1.71707 52.2H3.11707V62H1.71707V52.2ZM9.81705 54.51C10.7597 54.51 11.5064 54.7853 12.0571 55.336C12.6171 55.8773 12.8971 56.6753 12.8971 57.73V62H11.5531V57.884C11.5531 57.1653 11.3804 56.624 11.0351 56.26C10.6897 55.896 10.1951 55.714 9.55105 55.714C8.82305 55.714 8.24905 55.9287 7.82905 56.358C7.40905 56.778 7.19905 57.3847 7.19905 58.178V62H5.85505V54.58H7.14305V55.7C7.41372 55.3173 7.77772 55.0233 8.23505 54.818C8.70172 54.6127 9.22905 54.51 9.81705 54.51ZM18.1004 52.634C17.2977 52.634 16.8964 53.068 16.8964 53.936V54.58H19.0524V55.686H16.9244V62H15.5804V55.686H14.3204V54.58H15.5804V53.922C15.5804 53.1847 15.795 52.6013 16.2244 52.172C16.6537 51.7427 17.2557 51.528 18.0304 51.528C18.329 51.528 18.609 51.5653 18.8704 51.64C19.1317 51.7147 19.3557 51.822 19.5424 51.962L19.1364 52.984C18.8284 52.7507 18.483 52.634 18.1004 52.634ZM23.3885 62.084C22.6512 62.084 21.9885 61.9207 21.4005 61.594C20.8125 61.2673 20.3505 60.8193 20.0145 60.25C19.6879 59.6713 19.5245 59.018 19.5245 58.29C19.5245 57.562 19.6879 56.9133 20.0145 56.344C20.3505 55.7653 20.8125 55.3173 21.4005 55C21.9885 54.6733 22.6512 54.51 23.3885 54.51C24.1259 54.51 24.7839 54.6733 25.3625 55C25.9505 55.3173 26.4079 55.7653 26.7345 56.344C27.0705 56.9133 27.2385 57.562 27.2385 58.29C27.2385 59.018 27.0705 59.6713 26.7345 60.25C26.4079 60.8193 25.9505 61.2673 25.3625 61.594C24.7839 61.9207 24.1259 62.084 23.3885 62.084ZM23.3885 60.908C23.8645 60.908 24.2892 60.8007 24.6625 60.586C25.0452 60.362 25.3439 60.054 25.5585 59.662C25.7732 59.2607 25.8805 58.8033 25.8805 58.29C25.8805 57.7767 25.7732 57.324 25.5585 56.932C25.3439 56.5307 25.0452 56.2227 24.6625 56.008C24.2892 55.7933 23.8645 55.686 23.3885 55.686C22.9125 55.686 22.4832 55.7933 22.1005 56.008C21.7272 56.2227 21.4285 56.5307 21.2045 56.932C20.9899 57.324 20.8825 57.7767 20.8825 58.29C20.8825 58.8033 20.9899 59.2607 21.2045 59.662C21.4285 60.054 21.7272 60.362 22.1005 60.586C22.4832 60.8007 22.9125 60.908 23.3885 60.908ZM30.3852 55.826C30.6186 55.3967 30.9639 55.07 31.4212 54.846C31.8786 54.622 32.4339 54.51 33.0872 54.51V55.812C33.0126 55.8027 32.9099 55.798 32.7792 55.798C32.0512 55.798 31.4772 56.0173 31.0572 56.456C30.6466 56.8853 30.4412 57.5013 30.4412 58.304V62H29.0972V54.58H30.3852V55.826ZM44.0257 54.51C44.9591 54.51 45.6964 54.7807 46.2377 55.322C46.7884 55.8633 47.0637 56.666 47.0637 57.73V62H45.7197V57.884C45.7197 57.1653 45.5517 56.624 45.2157 56.26C44.8891 55.896 44.4177 55.714 43.8017 55.714C43.1204 55.714 42.5791 55.9287 42.1777 56.358C41.7764 56.778 41.5757 57.3847 41.5757 58.178V62H40.2317V57.884C40.2317 57.1653 40.0637 56.624 39.7277 56.26C39.4011 55.896 38.9297 55.714 38.3137 55.714C37.6324 55.714 37.0911 55.9287 36.6897 56.358C36.2884 56.778 36.0877 57.3847 36.0877 58.178V62H34.7437V54.58H36.0317V55.686C36.3024 55.3033 36.6571 55.014 37.0957 54.818C37.5344 54.6127 38.0337 54.51 38.5937 54.51C39.1724 54.51 39.6857 54.6267 40.1337 54.86C40.5817 55.0933 40.9271 55.434 41.1697 55.882C41.4497 55.4527 41.8371 55.1167 42.3317 54.874C42.8357 54.6313 43.4004 54.51 44.0257 54.51ZM52.2387 54.51C53.2654 54.51 54.0494 54.762 54.5907 55.266C55.1414 55.77 55.4167 56.5213 55.4167 57.52V62H54.1427V61.02C53.9187 61.3653 53.5967 61.6313 53.1767 61.818C52.766 61.9953 52.276 62.084 51.7067 62.084C50.876 62.084 50.2087 61.8833 49.7047 61.482C49.21 61.0807 48.9627 60.5533 48.9627 59.9C48.9627 59.2467 49.2007 58.724 49.6767 58.332C50.1527 57.9307 50.9087 57.73 51.9447 57.73H54.0727V57.464C54.0727 56.8853 53.9047 56.442 53.5687 56.134C53.2327 55.826 52.738 55.672 52.0847 55.672C51.646 55.672 51.2167 55.7467 50.7967 55.896C50.3767 56.036 50.022 56.2273 49.7327 56.47L49.1727 55.462C49.5554 55.154 50.0127 54.9207 50.5447 54.762C51.0767 54.594 51.6414 54.51 52.2387 54.51ZM51.9307 61.048C52.444 61.048 52.8874 60.936 53.2607 60.712C53.634 60.4787 53.9047 60.152 54.0727 59.732V58.696H52.0007C50.862 58.696 50.2927 59.0787 50.2927 59.844C50.2927 60.2173 50.4374 60.5113 50.7267 60.726C51.016 60.9407 51.4174 61.048 51.9307 61.048ZM62.0759 61.566C61.8799 61.734 61.6372 61.8647 61.3479 61.958C61.0585 62.042 60.7599 62.084 60.4519 62.084C59.7052 62.084 59.1265 61.8833 58.7159 61.482C58.3052 61.0807 58.0999 60.5067 58.0999 59.76V55.686H56.8399V54.58H58.0999V52.956H59.4439V54.58H61.5719V55.686H59.4439V59.704C59.4439 60.1053 59.5419 60.4133 59.7379 60.628C59.9432 60.8427 60.2325 60.95 60.6059 60.95C61.0165 60.95 61.3665 60.8333 61.6559 60.6L62.0759 61.566ZM63.7008 54.58H65.0448V62H63.7008V54.58ZM64.3728 53.152C64.1114 53.152 63.8921 53.068 63.7148 52.9C63.5468 52.732 63.4628 52.5267 63.4628 52.284C63.4628 52.0413 63.5468 51.836 63.7148 51.668C63.8921 51.4907 64.1114 51.402 64.3728 51.402C64.6341 51.402 64.8488 51.486 65.0168 51.654C65.1941 51.8127 65.2828 52.0133 65.2828 52.256C65.2828 52.508 65.1941 52.7227 65.0168 52.9C64.8488 53.068 64.6341 53.152 64.3728 53.152ZM70.7889 62.084C70.0516 62.084 69.3889 61.9207 68.8009 61.594C68.2129 61.2673 67.7509 60.8193 67.4149 60.25C67.0882 59.6713 66.9249 59.018 66.9249 58.29C66.9249 57.562 67.0882 56.9133 67.4149 56.344C67.7509 55.7653 68.2129 55.3173 68.8009 55C69.3889 54.6733 70.0516 54.51 70.7889 54.51C71.5262 54.51 72.1842 54.6733 72.7629 55C73.3509 55.3173 73.8082 55.7653 74.1349 56.344C74.4709 56.9133 74.6389 57.562 74.6389 58.29C74.6389 59.018 74.4709 59.6713 74.1349 60.25C73.8082 60.8193 73.3509 61.2673 72.7629 61.594C72.1842 61.9207 71.5262 62.084 70.7889 62.084ZM70.7889 60.908C71.2649 60.908 71.6896 60.8007 72.0629 60.586C72.4456 60.362 72.7442 60.054 72.9589 59.662C73.1736 59.2607 73.2809 58.8033 73.2809 58.29C73.2809 57.7767 73.1736 57.324 72.9589 56.932C72.7442 56.5307 72.4456 56.2227 72.0629 56.008C71.6896 55.7933 71.2649 55.686 70.7889 55.686C70.3129 55.686 69.8836 55.7933 69.5009 56.008C69.1276 56.2227 68.8289 56.5307 68.6049 56.932C68.3902 57.324 68.2829 57.7767 68.2829 58.29C68.2829 58.8033 68.3902 59.2607 68.6049 59.662C68.8289 60.054 69.1276 60.362 69.5009 60.586C69.8836 60.8007 70.3129 60.908 70.7889 60.908ZM80.4596 54.51C81.4023 54.51 82.149 54.7853 82.6996 55.336C83.2596 55.8773 83.5396 56.6753 83.5396 57.73V62H82.1956V57.884C82.1956 57.1653 82.023 56.624 81.6776 56.26C81.3323 55.896 80.8376 55.714 80.1936 55.714C79.4656 55.714 78.8916 55.9287 78.4716 56.358C78.0516 56.778 77.8416 57.3847 77.8416 58.178V62H76.4976V54.58H77.7856V55.7C78.0563 55.3173 78.4203 55.0233 78.8776 54.818C79.3443 54.6127 79.8716 54.51 80.4596 54.51Z" fill="#EAC43E"/>
<path d="M158.839 49L156.725 45.99C156.464 46.0087 156.259 46.018 156.109 46.018H153.687V49H152.287V39.2H156.109C157.379 39.2 158.377 39.5033 159.105 40.11C159.833 40.7167 160.197 41.552 160.197 42.616C160.197 43.372 160.011 44.016 159.637 44.548C159.264 45.08 158.732 45.4673 158.041 45.71L160.365 49H158.839ZM156.067 44.828C156.954 44.828 157.631 44.6367 158.097 44.254C158.564 43.8713 158.797 43.3253 158.797 42.616C158.797 41.9067 158.564 41.3653 158.097 40.992C157.631 40.6093 156.954 40.418 156.067 40.418H153.687V44.828H156.067ZM168.969 45.332C168.969 45.4347 168.96 45.57 168.941 45.738H162.921C163.005 46.3913 163.29 46.9187 163.775 47.32C164.27 47.712 164.881 47.908 165.609 47.908C166.496 47.908 167.21 47.6093 167.751 47.012L168.493 47.88C168.157 48.272 167.737 48.5707 167.233 48.776C166.739 48.9813 166.183 49.084 165.567 49.084C164.783 49.084 164.088 48.9253 163.481 48.608C162.875 48.2813 162.403 47.8287 162.067 47.25C161.741 46.6713 161.577 46.018 161.577 45.29C161.577 44.5713 161.736 43.9227 162.053 43.344C162.38 42.7653 162.823 42.3173 163.383 42C163.953 41.6733 164.592 41.51 165.301 41.51C166.011 41.51 166.641 41.6733 167.191 42C167.751 42.3173 168.185 42.7653 168.493 43.344C168.811 43.9227 168.969 44.5853 168.969 45.332ZM165.301 42.644C164.657 42.644 164.116 42.84 163.677 43.232C163.248 43.624 162.996 44.1373 162.921 44.772H167.681C167.607 44.1467 167.35 43.638 166.911 43.246C166.482 42.8447 165.945 42.644 165.301 42.644ZM177.836 41.58V51.716H176.492V47.88C176.184 48.272 175.806 48.5707 175.358 48.776C174.919 48.9813 174.434 49.084 173.902 49.084C173.183 49.084 172.539 48.9253 171.97 48.608C171.4 48.2907 170.952 47.8473 170.626 47.278C170.308 46.6993 170.15 46.0367 170.15 45.29C170.15 44.5433 170.308 43.8853 170.626 43.316C170.952 42.7467 171.4 42.3033 171.97 41.986C172.539 41.6687 173.183 41.51 173.902 41.51C174.452 41.51 174.956 41.6173 175.414 41.832C175.871 42.0373 176.249 42.3453 176.548 42.756V41.58H177.836ZM174.014 47.908C174.48 47.908 174.905 47.8007 175.288 47.586C175.67 47.362 175.969 47.054 176.184 46.662C176.398 46.2607 176.506 45.8033 176.506 45.29C176.506 44.7767 176.394 44.324 176.17 43.932C175.955 43.54 175.656 43.2367 175.274 43.022C174.9 42.798 174.48 42.686 174.014 42.686C173.538 42.686 173.108 42.7933 172.726 43.008C172.352 43.2227 172.054 43.5307 171.83 43.932C171.615 44.324 171.508 44.7767 171.508 45.29C171.508 45.8033 171.615 46.2607 171.83 46.662C172.054 47.054 172.352 47.362 172.726 47.586C173.108 47.8007 173.538 47.908 174.014 47.908ZM187.294 41.58V49H186.02V47.88C185.75 48.2627 185.39 48.5613 184.942 48.776C184.504 48.9813 184.023 49.084 183.5 49.084C182.511 49.084 181.732 48.8133 181.162 48.272C180.593 47.7213 180.308 46.914 180.308 45.85V41.58H181.652V45.696C181.652 46.4147 181.825 46.9607 182.17 47.334C182.516 47.698 183.01 47.88 183.654 47.88C184.364 47.88 184.924 47.6653 185.334 47.236C185.745 46.8067 185.95 46.2 185.95 45.416V41.58H187.294ZM189.853 41.58H191.197V49H189.853V41.58ZM190.525 40.152C190.264 40.152 190.044 40.068 189.867 39.9C189.699 39.732 189.615 39.5267 189.615 39.284C189.615 39.0413 189.699 38.836 189.867 38.668C190.044 38.4907 190.264 38.402 190.525 38.402C190.786 38.402 191.001 38.486 191.169 38.654C191.346 38.8127 191.435 39.0133 191.435 39.256C191.435 39.508 191.346 39.7227 191.169 39.9C191.001 40.068 190.786 40.152 190.525 40.152ZM195.051 42.826C195.285 42.3967 195.63 42.07 196.087 41.846C196.545 41.622 197.1 41.51 197.753 41.51V42.812C197.679 42.8027 197.576 42.798 197.445 42.798C196.717 42.798 196.143 43.0173 195.723 43.456C195.313 43.8853 195.107 44.5013 195.107 45.304V49H193.763V41.58H195.051V42.826ZM206.047 45.332C206.047 45.4347 206.038 45.57 206.019 45.738H199.999C200.083 46.3913 200.368 46.9187 200.853 47.32C201.348 47.712 201.959 47.908 202.687 47.908C203.574 47.908 204.288 47.6093 204.829 47.012L205.571 47.88C205.235 48.272 204.815 48.5707 204.311 48.776C203.817 48.9813 203.261 49.084 202.645 49.084C201.861 49.084 201.166 48.9253 200.559 48.608C199.953 48.2813 199.481 47.8287 199.145 47.25C198.819 46.6713 198.655 46.018 198.655 45.29C198.655 44.5713 198.814 43.9227 199.131 43.344C199.458 42.7653 199.901 42.3173 200.461 42C201.031 41.6733 201.67 41.51 202.379 41.51C203.089 41.51 203.719 41.6733 204.269 42C204.829 42.3173 205.263 42.7653 205.571 43.344C205.889 43.9227 206.047 44.5853 206.047 45.332ZM202.379 42.644C201.735 42.644 201.194 42.84 200.755 43.232C200.326 43.624 200.074 44.1373 199.999 44.772H204.759C204.685 44.1467 204.428 43.638 203.989 43.246C203.56 42.8447 203.023 42.644 202.379 42.644ZM214.914 38.612V49H213.626V47.824C213.327 48.2347 212.949 48.5473 212.492 48.762C212.034 48.9767 211.53 49.084 210.98 49.084C210.261 49.084 209.617 48.9253 209.048 48.608C208.478 48.2907 208.03 47.8473 207.704 47.278C207.386 46.6993 207.228 46.0367 207.228 45.29C207.228 44.5433 207.386 43.8853 207.704 43.316C208.03 42.7467 208.478 42.3033 209.048 41.986C209.617 41.6687 210.261 41.51 210.98 41.51C211.512 41.51 212.002 41.6127 212.45 41.818C212.898 42.014 213.271 42.308 213.57 42.7V38.612H214.914ZM211.092 47.908C211.558 47.908 211.983 47.8007 212.366 47.586C212.748 47.362 213.047 47.054 213.262 46.662C213.476 46.2607 213.584 45.8033 213.584 45.29C213.584 44.7767 213.476 44.324 213.262 43.932C213.047 43.5307 212.748 43.2227 212.366 43.008C211.983 42.7933 211.558 42.686 211.092 42.686C210.616 42.686 210.186 42.7933 209.804 43.008C209.43 43.2227 209.132 43.5307 208.908 43.932C208.693 44.324 208.586 44.7767 208.586 45.29C208.586 45.8033 208.693 46.2607 208.908 46.662C209.132 47.054 209.43 47.362 209.804 47.586C210.186 47.8007 210.616 47.908 211.092 47.908ZM142.717 56.2H144.117V66H142.717V56.2ZM150.817 58.51C151.76 58.51 152.506 58.7853 153.057 59.336C153.617 59.8773 153.897 60.6753 153.897 61.73V66H152.553V61.884C152.553 61.1653 152.38 60.624 152.035 60.26C151.69 59.896 151.195 59.714 150.551 59.714C149.823 59.714 149.249 59.9287 148.829 60.358C148.409 60.778 148.199 61.3847 148.199 62.178V66H146.855V58.58H148.143V59.7C148.414 59.3173 148.778 59.0233 149.235 58.818C149.702 58.6127 150.229 58.51 150.817 58.51ZM159.1 56.634C158.298 56.634 157.896 57.068 157.896 57.936V58.58H160.052V59.686H157.924V66H156.58V59.686H155.32V58.58H156.58V57.922C156.58 57.1847 156.795 56.6013 157.224 56.172C157.654 55.7427 158.256 55.528 159.03 55.528C159.329 55.528 159.609 55.5653 159.87 55.64C160.132 55.7147 160.356 55.822 160.542 55.962L160.136 56.984C159.828 56.7507 159.483 56.634 159.1 56.634ZM164.389 66.084C163.651 66.084 162.989 65.9207 162.401 65.594C161.813 65.2673 161.351 64.8193 161.015 64.25C160.688 63.6713 160.525 63.018 160.525 62.29C160.525 61.562 160.688 60.9133 161.015 60.344C161.351 59.7653 161.813 59.3173 162.401 59C162.989 58.6733 163.651 58.51 164.389 58.51C165.126 58.51 165.784 58.6733 166.363 59C166.951 59.3173 167.408 59.7653 167.735 60.344C168.071 60.9133 168.239 61.562 168.239 62.29C168.239 63.018 168.071 63.6713 167.735 64.25C167.408 64.8193 166.951 65.2673 166.363 65.594C165.784 65.9207 165.126 66.084 164.389 66.084ZM164.389 64.908C164.865 64.908 165.289 64.8007 165.663 64.586C166.045 64.362 166.344 64.054 166.559 63.662C166.773 63.2607 166.881 62.8033 166.881 62.29C166.881 61.7767 166.773 61.324 166.559 60.932C166.344 60.5307 166.045 60.2227 165.663 60.008C165.289 59.7933 164.865 59.686 164.389 59.686C163.913 59.686 163.483 59.7933 163.101 60.008C162.727 60.2227 162.429 60.5307 162.205 60.932C161.99 61.324 161.883 61.7767 161.883 62.29C161.883 62.8033 161.99 63.2607 162.205 63.662C162.429 64.054 162.727 64.362 163.101 64.586C163.483 64.8007 163.913 64.908 164.389 64.908ZM171.385 59.826C171.619 59.3967 171.964 59.07 172.421 58.846C172.879 58.622 173.434 58.51 174.087 58.51V59.812C174.013 59.8027 173.91 59.798 173.779 59.798C173.051 59.798 172.477 60.0173 172.057 60.456C171.647 60.8853 171.441 61.5013 171.441 62.304V66H170.097V58.58H171.385V59.826ZM185.026 58.51C185.959 58.51 186.696 58.7807 187.238 59.322C187.788 59.8633 188.064 60.666 188.064 61.73V66H186.72V61.884C186.72 61.1653 186.552 60.624 186.216 60.26C185.889 59.896 185.418 59.714 184.802 59.714C184.12 59.714 183.579 59.9287 183.178 60.358C182.776 60.778 182.576 61.3847 182.576 62.178V66H181.232V61.884C181.232 61.1653 181.064 60.624 180.728 60.26C180.401 59.896 179.93 59.714 179.314 59.714C178.632 59.714 178.091 59.9287 177.69 60.358C177.288 60.778 177.088 61.3847 177.088 62.178V66H175.744V58.58H177.032V59.686C177.302 59.3033 177.657 59.014 178.096 58.818C178.534 58.6127 179.034 58.51 179.594 58.51C180.172 58.51 180.686 58.6267 181.134 58.86C181.582 59.0933 181.927 59.434 182.17 59.882C182.45 59.4527 182.837 59.1167 183.332 58.874C183.836 58.6313 184.4 58.51 185.026 58.51ZM193.239 58.51C194.265 58.51 195.049 58.762 195.591 59.266C196.141 59.77 196.417 60.5213 196.417 61.52V66H195.143V65.02C194.919 65.3653 194.597 65.6313 194.177 65.818C193.766 65.9953 193.276 66.084 192.707 66.084C191.876 66.084 191.209 65.8833 190.705 65.482C190.21 65.0807 189.963 64.5533 189.963 63.9C189.963 63.2467 190.201 62.724 190.677 62.332C191.153 61.9307 191.909 61.73 192.945 61.73H195.073V61.464C195.073 60.8853 194.905 60.442 194.569 60.134C194.233 59.826 193.738 59.672 193.085 59.672C192.646 59.672 192.217 59.7467 191.797 59.896C191.377 60.036 191.022 60.2273 190.733 60.47L190.173 59.462C190.555 59.154 191.013 58.9207 191.545 58.762C192.077 58.594 192.641 58.51 193.239 58.51ZM192.931 65.048C193.444 65.048 193.887 64.936 194.261 64.712C194.634 64.4787 194.905 64.152 195.073 63.732V62.696H193.001C191.862 62.696 191.293 63.0787 191.293 63.844C191.293 64.2173 191.437 64.5113 191.727 64.726C192.016 64.9407 192.417 65.048 192.931 65.048ZM203.076 65.566C202.88 65.734 202.637 65.8647 202.348 65.958C202.059 66.042 201.76 66.084 201.452 66.084C200.705 66.084 200.127 65.8833 199.716 65.482C199.305 65.0807 199.1 64.5067 199.1 63.76V59.686H197.84V58.58H199.1V56.956H200.444V58.58H202.572V59.686H200.444V63.704C200.444 64.1053 200.542 64.4133 200.738 64.628C200.943 64.8427 201.233 64.95 201.606 64.95C202.017 64.95 202.367 64.8333 202.656 64.6L203.076 65.566ZM204.701 58.58H206.045V66H204.701V58.58ZM205.373 57.152C205.111 57.152 204.892 57.068 204.715 56.9C204.547 56.732 204.463 56.5267 204.463 56.284C204.463 56.0413 204.547 55.836 204.715 55.668C204.892 55.4907 205.111 55.402 205.373 55.402C205.634 55.402 205.849 55.486 206.017 55.654C206.194 55.8127 206.283 56.0133 206.283 56.256C206.283 56.508 206.194 56.7227 206.017 56.9C205.849 57.068 205.634 57.152 205.373 57.152ZM211.789 66.084C211.052 66.084 210.389 65.9207 209.801 65.594C209.213 65.2673 208.751 64.8193 208.415 64.25C208.088 63.6713 207.925 63.018 207.925 62.29C207.925 61.562 208.088 60.9133 208.415 60.344C208.751 59.7653 209.213 59.3173 209.801 59C210.389 58.6733 211.052 58.51 211.789 58.51C212.526 58.51 213.184 58.6733 213.763 59C214.351 59.3173 214.808 59.7653 215.135 60.344C215.471 60.9133 215.639 61.562 215.639 62.29C215.639 63.018 215.471 63.6713 215.135 64.25C214.808 64.8193 214.351 65.2673 213.763 65.594C213.184 65.9207 212.526 66.084 211.789 66.084ZM211.789 64.908C212.265 64.908 212.69 64.8007 213.063 64.586C213.446 64.362 213.744 64.054 213.959 63.662C214.174 63.2607 214.281 62.8033 214.281 62.29C214.281 61.7767 214.174 61.324 213.959 60.932C213.744 60.5307 213.446 60.2227 213.063 60.008C212.69 59.7933 212.265 59.686 211.789 59.686C211.313 59.686 210.884 59.7933 210.501 60.008C210.128 60.2227 209.829 60.5307 209.605 60.932C209.39 61.324 209.283 61.7767 209.283 62.29C209.283 62.8033 209.39 63.2607 209.605 63.662C209.829 64.054 210.128 64.362 210.501 64.586C210.884 64.8007 211.313 64.908 211.789 64.908ZM221.46 58.51C222.402 58.51 223.149 58.7853 223.7 59.336C224.26 59.8773 224.54 60.6753 224.54 61.73V66H223.196V61.884C223.196 61.1653 223.023 60.624 222.678 60.26C222.332 59.896 221.838 59.714 221.194 59.714C220.466 59.714 219.892 59.9287 219.472 60.358C219.052 60.778 218.842 61.3847 218.842 62.178V66H217.498V58.58H218.786V59.7C219.056 59.3173 219.42 59.0233 219.878 58.818C220.344 58.6127 220.872 58.51 221.46 58.51Z" fill="#111111" fill-opacity="0.4"/>
<path d="M289.352 58.112C288.363 58.112 287.471 57.8973 286.678 57.468C285.885 57.0293 285.259 56.4273 284.802 55.662C284.354 54.8967 284.13 54.0427 284.13 53.1C284.13 52.1573 284.354 51.3033 284.802 50.538C285.259 49.7727 285.885 49.1753 286.678 48.746C287.471 48.3073 288.363 48.088 289.352 48.088C290.332 48.088 291.219 48.3073 292.012 48.746C292.805 49.1753 293.426 49.7727 293.874 50.538C294.322 51.294 294.546 52.148 294.546 53.1C294.546 54.052 294.322 54.9107 293.874 55.676C293.426 56.432 292.805 57.0293 292.012 57.468C291.219 57.8973 290.332 58.112 289.352 58.112ZM289.352 56.866C290.071 56.866 290.715 56.7027 291.284 56.376C291.863 56.0493 292.315 55.6013 292.642 55.032C292.978 54.4533 293.146 53.8093 293.146 53.1C293.146 52.3907 292.978 51.7513 292.642 51.182C292.315 50.6033 291.863 50.1507 291.284 49.824C290.715 49.4973 290.071 49.334 289.352 49.334C288.633 49.334 287.98 49.4973 287.392 49.824C286.813 50.1507 286.356 50.6033 286.02 51.182C285.693 51.7513 285.53 52.3907 285.53 53.1C285.53 53.8093 285.693 54.4533 286.02 55.032C286.356 55.6013 286.813 56.0493 287.392 56.376C287.98 56.7027 288.633 56.866 289.352 56.866ZM299.724 58.084C298.968 58.084 298.291 57.9207 297.694 57.594C297.106 57.2673 296.644 56.8193 296.308 56.25C295.972 55.6713 295.804 55.018 295.804 54.29C295.804 53.562 295.972 52.9133 296.308 52.344C296.644 51.7653 297.106 51.3173 297.694 51C298.291 50.6733 298.968 50.51 299.724 50.51C300.396 50.51 300.993 50.6453 301.516 50.916C302.048 51.1867 302.458 51.5787 302.748 52.092L301.726 52.75C301.492 52.3953 301.203 52.1293 300.858 51.952C300.512 51.7747 300.13 51.686 299.71 51.686C299.224 51.686 298.786 51.7933 298.394 52.008C298.011 52.2227 297.708 52.5307 297.484 52.932C297.269 53.324 297.162 53.7767 297.162 54.29C297.162 54.8127 297.269 55.2747 297.484 55.676C297.708 56.068 298.011 56.3713 298.394 56.586C298.786 56.8007 299.224 56.908 299.71 56.908C300.13 56.908 300.512 56.8193 300.858 56.642C301.203 56.4647 301.492 56.1987 301.726 55.844L302.748 56.488C302.458 57.0013 302.048 57.398 301.516 57.678C300.993 57.9487 300.396 58.084 299.724 58.084ZM307.612 58.084C306.856 58.084 306.18 57.9207 305.582 57.594C304.994 57.2673 304.532 56.8193 304.196 56.25C303.86 55.6713 303.692 55.018 303.692 54.29C303.692 53.562 303.86 52.9133 304.196 52.344C304.532 51.7653 304.994 51.3173 305.582 51C306.18 50.6733 306.856 50.51 307.612 50.51C308.284 50.51 308.882 50.6453 309.404 50.916C309.936 51.1867 310.347 51.5787 310.636 52.092L309.614 52.75C309.381 52.3953 309.092 52.1293 308.746 51.952C308.401 51.7747 308.018 51.686 307.598 51.686C307.113 51.686 306.674 51.7933 306.282 52.008C305.9 52.2227 305.596 52.5307 305.372 52.932C305.158 53.324 305.05 53.7767 305.05 54.29C305.05 54.8127 305.158 55.2747 305.372 55.676C305.596 56.068 305.9 56.3713 306.282 56.586C306.674 56.8007 307.113 56.908 307.598 56.908C308.018 56.908 308.401 56.8193 308.746 56.642C309.092 56.4647 309.381 56.1987 309.614 55.844L310.636 56.488C310.347 57.0013 309.936 57.398 309.404 57.678C308.882 57.9487 308.284 58.084 307.612 58.084ZM319.293 50.58V58H318.019V56.88C317.748 57.2627 317.389 57.5613 316.941 57.776C316.502 57.9813 316.021 58.084 315.499 58.084C314.509 58.084 313.73 57.8133 313.161 57.272C312.591 56.7213 312.307 55.914 312.307 54.85V50.58H313.651V54.696C313.651 55.4147 313.823 55.9607 314.169 56.334C314.514 56.698 315.009 56.88 315.653 56.88C316.362 56.88 316.922 56.6653 317.333 56.236C317.743 55.8067 317.949 55.2 317.949 54.416V50.58H319.293ZM325.785 50.51C326.504 50.51 327.148 50.6687 327.717 50.986C328.286 51.3033 328.73 51.7467 329.047 52.316C329.374 52.8853 329.537 53.5433 329.537 54.29C329.537 55.0367 329.374 55.6993 329.047 56.278C328.73 56.8473 328.286 57.2907 327.717 57.608C327.148 57.9253 326.504 58.084 325.785 58.084C325.253 58.084 324.763 57.9813 324.315 57.776C323.876 57.5707 323.503 57.272 323.195 56.88V60.716H321.851V50.58H323.139V51.756C323.438 51.3453 323.816 51.0373 324.273 50.832C324.73 50.6173 325.234 50.51 325.785 50.51ZM325.673 56.908C326.149 56.908 326.574 56.8007 326.947 56.586C327.33 56.362 327.628 56.054 327.843 55.662C328.067 55.2607 328.179 54.8033 328.179 54.29C328.179 53.7767 328.067 53.324 327.843 52.932C327.628 52.5307 327.33 52.2227 326.947 52.008C326.574 51.7933 326.149 51.686 325.673 51.686C325.206 51.686 324.782 51.798 324.399 52.022C324.026 52.2367 323.727 52.54 323.503 52.932C323.288 53.324 323.181 53.7767 323.181 54.29C323.181 54.8033 323.288 55.2607 323.503 55.662C323.718 56.054 324.016 56.362 324.399 56.586C324.782 56.8007 325.206 56.908 325.673 56.908ZM334.028 50.51C335.054 50.51 335.838 50.762 336.38 51.266C336.93 51.77 337.206 52.5213 337.206 53.52V58H335.932V57.02C335.708 57.3653 335.386 57.6313 334.966 57.818C334.555 57.9953 334.065 58.084 333.496 58.084C332.665 58.084 331.998 57.8833 331.494 57.482C330.999 57.0807 330.752 56.5533 330.752 55.9C330.752 55.2467 330.99 54.724 331.466 54.332C331.942 53.9307 332.698 53.73 333.734 53.73H335.862V53.464C335.862 52.8853 335.694 52.442 335.358 52.134C335.022 51.826 334.527 51.672 333.874 51.672C333.435 51.672 333.006 51.7467 332.586 51.896C332.166 52.036 331.811 52.2273 331.522 52.47L330.962 51.462C331.344 51.154 331.802 50.9207 332.334 50.762C332.866 50.594 333.43 50.51 334.028 50.51ZM333.72 57.048C334.233 57.048 334.676 56.936 335.05 56.712C335.423 56.4787 335.694 56.152 335.862 55.732V54.696H333.79C332.651 54.696 332.082 55.0787 332.082 55.844C332.082 56.2173 332.226 56.5113 332.516 56.726C332.805 56.9407 333.206 57.048 333.72 57.048ZM343.865 57.566C343.669 57.734 343.426 57.8647 343.137 57.958C342.848 58.042 342.549 58.084 342.241 58.084C341.494 58.084 340.916 57.8833 340.505 57.482C340.094 57.0807 339.889 56.5067 339.889 55.76V51.686H338.629V50.58H339.889V48.956H341.233V50.58H343.361V51.686H341.233V55.704C341.233 56.1053 341.331 56.4133 341.527 56.628C341.732 56.8427 342.022 56.95 342.395 56.95C342.806 56.95 343.156 56.8333 343.445 56.6L343.865 57.566ZM345.49 50.58H346.834V58H345.49V50.58ZM346.162 49.152C345.9 49.152 345.681 49.068 345.504 48.9C345.336 48.732 345.252 48.5267 345.252 48.284C345.252 48.0413 345.336 47.836 345.504 47.668C345.681 47.4907 345.9 47.402 346.162 47.402C346.423 47.402 346.638 47.486 346.806 47.654C346.983 47.8127 347.072 48.0133 347.072 48.256C347.072 48.508 346.983 48.7227 346.806 48.9C346.638 49.068 346.423 49.152 346.162 49.152ZM352.578 58.084C351.841 58.084 351.178 57.9207 350.59 57.594C350.002 57.2673 349.54 56.8193 349.204 56.25C348.877 55.6713 348.714 55.018 348.714 54.29C348.714 53.562 348.877 52.9133 349.204 52.344C349.54 51.7653 350.002 51.3173 350.59 51C351.178 50.6733 351.841 50.51 352.578 50.51C353.315 50.51 353.973 50.6733 354.552 51C355.14 51.3173 355.597 51.7653 355.924 52.344C356.26 52.9133 356.428 53.562 356.428 54.29C356.428 55.018 356.26 55.6713 355.924 56.25C355.597 56.8193 355.14 57.2673 354.552 57.594C353.973 57.9207 353.315 58.084 352.578 58.084ZM352.578 56.908C353.054 56.908 353.479 56.8007 353.852 56.586C354.235 56.362 354.533 56.054 354.748 55.662C354.963 55.2607 355.07 54.8033 355.07 54.29C355.07 53.7767 354.963 53.324 354.748 52.932C354.533 52.5307 354.235 52.2227 353.852 52.008C353.479 51.7933 353.054 51.686 352.578 51.686C352.102 51.686 351.673 51.7933 351.29 52.008C350.917 52.2227 350.618 52.5307 350.394 52.932C350.179 53.324 350.072 53.7767 350.072 54.29C350.072 54.8033 350.179 55.2607 350.394 55.662C350.618 56.054 350.917 56.362 351.29 56.586C351.673 56.8007 352.102 56.908 352.578 56.908ZM362.249 50.51C363.191 50.51 363.938 50.7853 364.489 51.336C365.049 51.8773 365.329 52.6753 365.329 53.73V58H363.985V53.884C363.985 53.1653 363.812 52.624 363.467 52.26C363.121 51.896 362.627 51.714 361.983 51.714C361.255 51.714 360.681 51.9287 360.261 52.358C359.841 52.778 359.631 53.3847 359.631 54.178V58H358.287V50.58H359.575V51.7C359.845 51.3173 360.209 51.0233 360.667 50.818C361.133 50.6127 361.661 50.51 362.249 50.51Z" fill="#111111" fill-opacity="0.4"/>
<path d="M43.004 8.2V18H41.184V9.726H39.112V8.2H43.004Z" fill="#EAC43E"/>
<path d="M186.714 16.46V18H179.49V16.782L183.382 13.086C183.821 12.666 184.115 12.302 184.264 11.994C184.423 11.6767 184.502 11.364 184.502 11.056C184.502 10.5987 184.348 10.2487 184.04 10.006C183.732 9.76333 183.279 9.642 182.682 9.642C181.683 9.642 180.918 9.98267 180.386 10.664L179.112 9.684C179.495 9.17067 180.008 8.774 180.652 8.494C181.305 8.20467 182.033 8.06 182.836 8.06C183.9 8.06 184.749 8.312 185.384 8.816C186.019 9.32 186.336 10.006 186.336 10.874C186.336 11.406 186.224 11.9053 186 12.372C185.776 12.8387 185.347 13.3707 184.712 13.968L182.094 16.46H186.714Z" fill="#111111" fill-opacity="0.4"/>
<path d="M325.788 12.246C326.693 12.358 327.384 12.666 327.86 13.17C328.336 13.674 328.574 14.304 328.574 15.06C328.574 15.6293 328.429 16.1473 328.14 16.614C327.851 17.0807 327.412 17.454 326.824 17.734C326.245 18.0047 325.536 18.14 324.696 18.14C323.996 18.14 323.319 18.042 322.666 17.846C322.022 17.6407 321.471 17.3607 321.014 17.006L321.798 15.592C322.153 15.8907 322.582 16.1287 323.086 16.306C323.599 16.474 324.127 16.558 324.668 16.558C325.312 16.558 325.816 16.4273 326.18 16.166C326.553 15.8953 326.74 15.5313 326.74 15.074C326.74 14.6167 326.563 14.262 326.208 14.01C325.863 13.7487 325.331 13.618 324.612 13.618H323.716V12.372L325.942 9.726H321.49V8.2H328.168V9.418L325.788 12.246Z" fill="#111111" fill-opacity="0.4"/>
<circle cx="42.5" cy="12.5" r="11.75" stroke="#EAC43E" stroke-width="1.5"/>
<circle cx="183.5" cy="12.5" r="11.75" stroke="#111111" stroke-opacity="0.4" stroke-width="1.5"/>
<circle cx="325.5" cy="12.5" r="11.75" stroke="#111111" stroke-opacity="0.4" stroke-width="1.5"/>
<line x1="201" y1="11.5" x2="308" y2="11.5" stroke="#111111" stroke-opacity="0.4"/>
<line x1="60" y1="11.5" x2="167" y2="11.5" stroke="#111111" stroke-opacity="0.4"/>
</svg>
